<svg xmlns="http://www.w3.org/2000/svg" viewBox="0 0 433.44 518.5">
    <defs>
        <style>
            .cls-1 {
                fill: #2a38b7;
            }

            .cls-2 {
                fill: #3b45f4;
            }

            .cls-3 {
                fill: #e8009b;
            }

            .cls-4 {
                fill: #ff4031;
            }

            .cls-5 {
                fill: #ff5f40;
            }

            .cls-6 {
                fill: #fff;
            }
            .question {
                animation: questANI 3s infinite linear;
                transform-origin: 93px 85px;
            }
            @keyframes questANI {
                25% {
                    transform: rotate(10deg);
                }
                75% {
                    transform: rotate(-10deg);
                }
            }
        </style>
    </defs>
    <g id="Layer_2" data-name="Layer 2">
        <g id="v2">
            <rect class="cls-1" x="95.37" y="257.73" width="338.07" height="31.78" rx="15.89" />
            <path class="cls-1"
                d="M247.68,76.59l-17.25,35.22,95.27,24.81,77.13,20.09a3.81,3.81,0,0,0,3.28-6.7l-63.17-48.6-78-60Z" />
            <polygon class="cls-2"
                points="264.41 257.73 371.32 257.73 317.86 150.45 264.41 43.18 210.95 150.45 157.49 257.73 264.41 257.73" />
            <polygon class="cls-3" points="199.42 173.59 329.39 173.59 345.89 206.69 182.93 206.69 199.42 173.59" />
            <path class="cls-4"
                d="M351.67,390.17c0,70.87-87.26,128.33-87.26,128.33S177.15,461,177.15,390.17s87.26-60.77,87.26-60.77S351.67,319.29,351.67,390.17Z" />
            <path class="cls-5"
                d="M296.84,314.25c-21.06-6.18-35.38,8.27-37.07,21.54-1.71,13.49,10.07,25.81,28.11,31.86,58.29,19.54,103.34-13,102.27-15.84-.85-2.21-23.29,10.77-55.2-5.69C315.87,336.28,315.89,319.83,296.84,314.25Z" />
            <path class="cls-5"
                d="M232,314.25c21.06-6.18,35.38,8.27,37.07,21.54,1.71,13.49-10.06,25.81-28.11,31.86-58.29,19.54-103.34-13-102.27-15.84.85-2.21,23.29,10.77,55.2-5.69C212.94,336.28,212.92,319.83,232,314.25Z" />
            <path class="cls-6"
                d="M165.15,0H12A12,12,0,0,0,0,12V165.15a12,12,0,0,0,12,12H89.75q12.35,26.92,45.56,34.8a7.71,7.71,0,0,0,8.93-10.41c-3.67-8.93-6.35-17.32-6.61-24.39h27.52a12,12,0,0,0,12-12V12A12,12,0,0,0,165.15,0Z" />
            <polygon class="cls-3 question"
                points="123.22 40.46 103.11 23.88 66.46 30.2 49.09 60.2 57.09 71.45 66.46 68.49 75.54 48.75 99.23 44.01 113.84 65.33 82.79 79.06 79.89 93.96 83.74 115.82 93.61 120.95 101.21 113.21 92.32 101.95 97.36 88.04 113.84 83.5 128.05 67.31 123.22 40.46" />
            <polygon class="cls-3 question"
                points="88.47 127.32 83.05 136.46 87.04 144.16 97.32 149.02 101.6 140.17 96.18 128.46 88.47 127.32" />
        </g>
    </g>
</svg>