<svg xmlns="http://www.w3.org/2000/svg" viewBox="0 0 503.16 518.5">
    <defs>
        <style>
            .cls-1 {
                fill: #00ffce;
            }

            .cls-2 {
                fill: #2a38b7;
            }

            .cls-3 {
                fill: #3b45f4;
            }

            .cls-4 {
                fill: #e8009b;
            }

            .cls-5 {
                fill: #ff4031;
            }

            .cls-6 {
                fill: #ff5f40;
            }

            .cls-7 {
                fill: #fff;
            }

            .mark {
                transform-origin: 87px 85px;
                animation: markANI 3s infinite linear;
            }
            @keyframes markANI {
                25% {
                    transform: rotate(10deg);
                }
                75% {
                    transform: rotate(-10deg);
                }
            }

            .spark {
                animation: sparkANI1 8s infinite linear;
            }
            .spark2 {
                animation: sparkANI2 13s infinite linear;
            }
            @keyframes sparkANI1 {
                50% {
                    fill: rgb(255, 0, 212);
                    transform: translate(-10px, 10px);
                }
            }
            @keyframes sparkANI2 {
                50% {
                    fill: rgb(255, 0, 212);
                    transform: translate(30px, -10px);
                }
            }
        </style>
    </defs>
    <g id="Layer_2" data-name="Layer 2">
        <g id="v2">
            <path class="cls-1 spark"
                d="M473.61,181.38A41.87,41.87,0,0,1,461,190.14a43.5,43.5,0,0,1,21.21,21.06,43.63,43.63,0,0,1,20.92-21.06,43.63,43.63,0,0,1-20.92-21.06A42,42,0,0,1,473.61,181.38Z" />
            <path class="cls-1 spark2"
                d="M207.83,29.72a32,32,0,0,1-9.62,6.7,33.34,33.34,0,0,1,16.23,16.11,33.3,33.3,0,0,1,16-16.11,32.16,32.16,0,0,1-9.33-6.57,32,32,0,0,1-6.66-9.54A31.94,31.94,0,0,1,207.83,29.72Z" />
            <path class="cls-1 spark2"
                d="M59.3,358.39a51.17,51.17,0,0,1-15.41,10.73,53.33,53.33,0,0,1,26,25.8,53.34,53.34,0,0,1,25.61-25.8,53.34,53.34,0,0,1-25.61-25.8A51.59,51.59,0,0,1,59.3,358.39Z" />
            <path class="cls-1 spark"
                d="M188,11.06a20.91,20.91,0,0,1-6.29,4.38A21.79,21.79,0,0,1,192.36,26a20.62,20.62,0,0,1,4.35-6.23,21.09,21.09,0,0,1,6.1-4.3,21.24,21.24,0,0,1-6.1-4.29,20.78,20.78,0,0,1-4.35-6.24A21,21,0,0,1,188,11.06Z" />
            <rect class="cls-2" x="95.37" y="257.73" width="338.07" height="31.78" rx="15.89" />
            <path class="cls-2"
                d="M247.68,76.59l-17.25,35.22,95.27,24.81,77.13,20.09a3.81,3.81,0,0,0,3.28-6.7l-63.17-48.6-78-60Z" />
            <polygon class="cls-3"
                points="264.41 257.73 371.32 257.73 317.86 150.45 264.41 43.18 210.95 150.45 157.49 257.73 264.41 257.73" />
            <polygon class="cls-4" points="199.42 173.59 329.39 173.59 345.89 206.69 182.93 206.69 199.42 173.59" />
            <path class="cls-5"
                d="M351.67,390.17c0,70.87-87.26,128.33-87.26,128.33S177.15,461,177.15,390.17s87.26-60.77,87.26-60.77S351.67,319.29,351.67,390.17Z" />
            <path class="cls-6"
                d="M296.84,314.25c-21.06-6.18-35.38,8.27-37.07,21.54-1.71,13.49,10.07,25.81,28.11,31.86,58.29,19.54,103.34-13,102.27-15.84-.85-2.21-23.29,10.77-55.2-5.69C315.87,336.28,315.89,319.83,296.84,314.25Z" />
            <path class="cls-6"
                d="M232,314.25c21.06-6.18,35.38,8.27,37.07,21.54,1.71,13.49-10.06,25.81-28.11,31.86-58.29,19.54-103.34-13-102.27-15.84.85-2.21,23.29,10.77,55.2-5.69C212.94,336.28,212.92,319.83,232,314.25Z" />
            <path class="cls-7"
                d="M165.15,0H12A12,12,0,0,0,0,12V165.15a12,12,0,0,0,12,12H89.75q12.35,26.92,45.56,34.8a7.71,7.71,0,0,0,8.93-10.41c-3.67-8.93-6.35-17.32-6.61-24.39h27.52a12,12,0,0,0,12-12V12A12,12,0,0,0,165.15,0Z" />
            <polygon class="cls-3 mark"
                points="71.28 27.2 80.78 20.34 103.46 27.2 106.62 54.1 88.95 124.78 80.78 127.94 71.28 116.87 64.95 66.93 70.23 48.82 71.28 27.2" />
            <polygon class="cls-3 mark"
                points="64.95 146.93 81.3 136.63 98.71 150.45 88.57 164.34 75.5 161.17 64.95 146.93" />
        </g>
    </g>
</svg>