<svg xmlns="http://www.w3.org/2000/svg" viewBox="0 0 1603.3 2262.74"><defs><style>.cls-1{fill:#00030a;}</style></defs><g id="Layer_2" data-name="Layer 2"><g id="v2"><rect class="cls-1" y="1019.71" width="1603.3" height="150.74" rx="15.89"/><path class="cls-1" d="M722.31,167,640.54,334l451.79,117.69L1458.11,547c19,5,31.16-19.79,15.56-31.8L1174.1,284.7,804.09,0Z"/><polygon class="cls-1" points="801.65 1026.04 1308.67 1026.04 1055.16 517.3 801.65 8.56 548.13 517.3 294.62 1026.04 801.65 1026.04"/><path class="cls-1" d="M1215.48,1654.13c0,336.12-413.83,608.61-413.83,608.61s-413.83-272.49-413.83-608.61S801.65,1366,801.65,1366,1215.48,1318,1215.48,1654.13Z"/><path class="cls-1" d="M955.48,1294.08c-99.89-29.29-167.81,39.22-175.8,102.17-8.12,64,47.72,122.41,133.31,151.11,276.41,92.65,490.08-61.87,485-75.15-4-10.46-110.46,51.08-261.77-27C1045.73,1398.59,1045.82,1320.57,955.48,1294.08Z"/><path class="cls-1" d="M647.81,1294.08c99.9-29.29,167.82,39.22,175.81,102.17,8.11,64-47.72,122.41-133.32,151.11-276.4,92.65-490.08-61.87-485-75.15,4-10.46,110.46,51.08,261.77-27C557.57,1398.59,557.47,1320.57,647.81,1294.08Z"/></g></g></svg>