<svg xmlns="http://www.w3.org/2000/svg" viewBox="0 0 1754.13 2655.77"><defs><style>.cls-1{fill:#000616;}</style></defs><g id="Layer_2" data-name="Layer 2"><g id="v2"><polygon class="cls-1" points="792.79 0 1127.35 0 1208.55 647.19 1020.16 913.77 1286.51 1042.86 935.71 1444.23 1169.57 1656.25 744.07 1951.44 864.25 1652.72 659.62 1366.75 812.28 1140.54 484.22 873.91 763.56 486 591.41 0 792.79 0"/><polygon class="cls-1" points="1480.03 0 1605.59 0 1636.07 242.9 1565.36 342.95 1665.32 391.4 1533.66 542.04 1621.44 621.62 1461.74 732.41 1506.84 620.29 1430.04 512.96 1487.34 428.06 1364.21 327.99 1469.05 182.4 1404.44 0 1480.03 0"/><polygon class="cls-1" points="693.1 0 519.82 323.63 446.24 268.49 429.63 454.79 178.02 565.65 315.69 433.6 258.73 303.44 315.69 134.98 496.09 127.86 450.99 0 693.1 0"/><polygon class="cls-1" points="484.37 870.09 605.43 968.49 537.08 1123.12 404.7 1080.73 443.87 1382.1 351.3 1344.59 275.34 1519.36 187.52 1287.69 332.31 1207.33 223.12 1019.81 479.47 974.71 484.37 870.09"/><polygon class="cls-1" points="143.77 2049.03 158.21 2166.62 0 2188.99 0 2287.05 4.13 2296.62 0 2297.65 0 2474.43 146.62 2439.38 118.8 2283.18 217.65 2256.35 229.65 2124.91 337.05 2069.52 143.77 2049.03"/><polygon class="cls-1" points="1451.19 2631.37 1562.02 2638.84 1558.04 2655.77 1734.93 2655.77 1754.13 2577.35 1602.47 2530.7 1623.79 2430.52 1512.37 2359.78 1512.18 2238.93 1405.63 2401.48 1516.82 2442.38 1451.19 2631.37"/><path class="cls-1" d="M110.64,1675.48c-18.1,18.1-38.26,31.78-58.25,40.56,20,8.77,40.15,22.45,58.25,40.56,17.72,17.72,31.2,37.4,40,57,8.79-19.84,22.39-39.81,40.35-57.77,17.57-17.57,37.08-31,56.5-39.77-19.42-8.8-38.93-22.2-56.5-39.78-18-18-31.56-37.92-40.35-57.76C141.84,1638.08,128.36,1657.76,110.64,1675.48Z"/><path class="cls-1" d="M359.83,1488.17a124.79,124.79,0,0,1-37.47,26.09A129.61,129.61,0,0,1,385.55,1577a129.76,129.76,0,0,1,62.3-62.74,129.87,129.87,0,0,1-62.3-62.74A124.8,124.8,0,0,1,359.83,1488.17Z"/><path class="cls-1" d="M124.66,769.06a124.43,124.43,0,0,1-37.47,26.09,124.79,124.79,0,0,1,37.47,26.09,124.8,124.8,0,0,1,25.72,36.65,129.76,129.76,0,0,1,62.3-62.74,129.65,129.65,0,0,1-62.3-62.74A124.8,124.8,0,0,1,124.66,769.06Z"/><path class="cls-1" d="M222.21,622.94A124.7,124.7,0,0,1,184.73,649a129.58,129.58,0,0,1,63.2,62.74A129.65,129.65,0,0,1,310.23,649a129.76,129.76,0,0,1-62.3-62.74A125.17,125.17,0,0,1,222.21,622.94Z"/><path class="cls-1" d="M278.35,825.68a62.36,62.36,0,0,1-18.74,13,64.84,64.84,0,0,1,31.6,31.37,64.77,64.77,0,0,1,31.15-31.37,64.77,64.77,0,0,1-31.15-31.37A62.64,62.64,0,0,1,278.35,825.68Z"/><path class="cls-1" d="M1493.68,1806.05c-18.11,18.11-38.26,31.79-58.26,40.56,20,8.78,40.15,22.46,58.26,40.56,17.72,17.72,31.19,37.4,40,57,8.78-19.84,22.38-39.81,40.34-57.77,17.58-17.57,37.08-31,56.5-39.77-19.42-8.8-38.92-22.2-56.5-39.77-18-18-31.56-37.93-40.34-57.77C1524.87,1768.65,1511.4,1788.33,1493.68,1806.05Z"/><path class="cls-1" d="M1338,111.3a128.81,128.81,0,0,1-38.83,27,134.39,134.39,0,0,1,65.49,65,134.45,134.45,0,0,1,64.56-65,129.43,129.43,0,0,1-37.67-26.51,129.1,129.1,0,0,1-26.89-38.5A129.43,129.43,0,0,1,1338,111.3Z"/><path class="cls-1" d="M1368.87,1944.74a96.47,96.47,0,0,1-29.13,20.28,100.79,100.79,0,0,1,49.13,48.77,100.85,100.85,0,0,1,48.42-48.77,100.77,100.77,0,0,1-48.42-48.76A97.12,97.12,0,0,1,1368.87,1944.74Z"/><path class="cls-1" d="M1608.53,839.65A135.42,135.42,0,0,1,1567.78,868a141.06,141.06,0,0,1,68.73,68.24A141.08,141.08,0,0,1,1704.26,868a141,141,0,0,1-67.75-68.23A135.88,135.88,0,0,1,1608.53,839.65Z"/><path class="cls-1" d="M1513.62,818.75a95.41,95.41,0,0,1-28.69,20,99.29,99.29,0,0,1,48.38,48,99.39,99.39,0,0,1,47.69-48,99.28,99.28,0,0,1-47.69-48A95.79,95.79,0,0,1,1513.62,818.75Z"/><path class="cls-1" d="M464.58,2502.92a97,97,0,0,1-29.13,20.28A100.75,100.75,0,0,1,484.57,2572,100.77,100.77,0,0,1,533,2523.2a100.85,100.85,0,0,1-48.42-48.77A97.31,97.31,0,0,1,464.58,2502.92Z"/><path class="cls-1" d="M871.71,2276a116.77,116.77,0,0,1-35.12,24.45,121.49,121.49,0,0,1,59.23,58.8,121.6,121.6,0,0,1,58.38-58.8,121.6,121.6,0,0,1-58.38-58.8A117.28,117.28,0,0,1,871.71,2276Z"/><path class="cls-1" d="M803.68,2408.16a151,151,0,0,1-45.51,31.69,157.43,157.43,0,0,1,76.75,76.21,157.57,157.57,0,0,1,75.67-76.21,157.5,157.5,0,0,1-75.67-76.2A151.63,151.63,0,0,1,803.68,2408.16Z"/><path class="cls-1" d="M1230.77,385.74A96.83,96.83,0,0,1,1201.64,406a100.82,100.82,0,0,1,49.13,48.76A100.77,100.77,0,0,1,1299.19,406a100.85,100.85,0,0,1-48.42-48.77A97.16,97.16,0,0,1,1230.77,385.74Z"/><polygon class="cls-1" points="1182.91 2628.88 1107.42 2655.77 1282.51 2655.77 1364.21 2567.11 1163.64 2484.33 1229.96 2332.59 1019.57 2201.74 1065.25 2386.75 968.91 2413.11 1182.91 2628.88"/></g></g></svg>