<svg xmlns="http://www.w3.org/2000/svg" viewBox="0 0 646.09 424.55">
    <defs>
        <style>
            .cls-1 {
                fill: #096;
            }

            .cls-2 {
                fill: #0f6;
            }

            .cls-3 {
                fill: #606;
            }

            .cls-4 {
                fill: #93c;
            }

            .cls-5 {
                fill: #f90;
            }

            .cls-6 {
                fill: #c30;
            }

            .cls-7 {
                fill: #f09;
            }

            .cls-8 {
                fill: #f3f;
            }

            .cls-9 {
                fill: #930;
            }

            .cls-10 {
                fill: #f93;
            }

            .cls-11 {
                fill: #c06;
            }

            .cls-12 {
                fill: #f06;
            }

            .cls-13 {
                fill: #00ffce;
            }

            /* Animation */

            /* Kettle */
            @keyframes bubbleOne {
                30% {
                    transform: translateX(-10px);
                }

                45% {
                    transform: translateX(30px);
                }

                65% {
                    transform: translateX(-20px);
                }

                80% {
                    transform: translateX(12px);
                }

                95% {
                    r: 10px;
                }

                100% {
                    transform: translateY(-150px) translateX(0px);
                    r: 14px;
                }
            }

            @keyframes bubbleTwo {
                30% {
                    transform: translateX(19px);
                }

                45% {
                    transform: translateX(-20px);
                }

                65% {
                    transform: translateX(20px);
                }

                80% {
                    transform: translateX(-32px);
                }

                95% {
                    r: 9px;
                }

                100% {
                    transform: translateY(-170px) translateX(0px);
                    r: 13px;
                }
            }
            @keyframes bubbleThree {
                30% {
                    transform: translateX(-13px);
                }

                45% {
                    transform: translateX(0px);
                }

                65% {
                    transform: translateX(30px);
                }

                80% {
                    transform: translateX(-20px);
                }

                95% {
                    r: 13px;
                }

                100% {
                    transform: translateY(-160px) translateX(5px);
                    r: 17px;
                }
            }
            #oneB.bubbleThree {
                animation: bubbleThree 17s infinite ease-in-out;
            }
            #twoB.bubbleOne {
                animation: bubbleOne 12s infinite ease-in-out;
            }
            #threeB.bubbleTwo{
                animation: bubbleTwo 15s infinite ease-in-out;
            }
            #fourB.bubbleThree {
                animation: bubbleThree 18s infinite ease-in-out;
            }
            #fiveB.bubbleOne {
                animation: bubbleOne 14s infinite ease-in-out;
            }
            #sixB.bubbleTwo{
                animation: bubbleTwo 11s infinite ease-in-out;
            }

            /* Candles */
            .candleFire1 {
                animation: fireANI1 3s linear infinite;
            }
            .candleFire2 {
                animation: fireANI2 3s linear infinite;
            }

            .candleFire3 {
                animation: fireANI1 5s linear infinite;
            }
            .candleFire4 {
                animation: fireANI2 5s linear infinite;
            }

            @keyframes fireANI1 {
                50% {
                    transform: translateY(-5px);
                }
            }
            @keyframes fireANI2 {
                50% {
                    transform: translateY(-5px);
                    fill: rgb(255, 0, 212);
                }
            }
        </style>
    </defs>
    <g id="Layer_2" data-name="Layer 2">
        <g id="homepage">
            <g id="bubbles">
                <circle id="oneB" class="cls-1 bubbleThree" cx="470.83" cy="205.73" r="13" />
                <circle id="twoB" class="cls-1 bubbleOne" cx="539.54" cy="230.58" r="7" />
                <circle id="threeB" class="cls-1 bubbleTwo" cx="413.51" cy="255.17" r="9" />
                <circle id="fourB" class="cls-2 bubbleThree" cx="552.02" cy="227.64" r="13" />
                <circle id="fiveB" class="cls-2 bubbleOne" cx="407.39" cy="261.79" r="7" />
                <circle id="sixB" class="cls-2 bubbleTwo" cx="399.03" cy="233.78" r="9" />
            </g>
            <g id="kettle">
                <path class="cls-1"
                    d="M571.67,162.47a21.58,21.58,0,0,0-40.1-11.11,40.41,40.41,0,0,0-44.52,6.28,18.83,18.83,0,0,0-35.72,1.11,18.71,18.71,0,0,0-17.27-1.95,18.56,18.56,0,0,0,.13-2.12,18.82,18.82,0,1,0-36.6,6.11,18.92,18.92,0,1,0,13.08,12.09,18.34,18.34,0,0,0,11.41-.64,19.06,19.06,0,0,0-.13,2.14,18.85,18.85,0,0,0,36.91,5.41A18.63,18.63,0,0,0,474,182.42a40.36,40.36,0,1,0,80.37,5.28c0-1.36-.07-2.7-.2-4A21.6,21.6,0,0,0,571.67,162.47Z" />
                <path class="cls-2"
                    d="M558,156.39A14.44,14.44,0,1,0,530.54,164a40.49,40.49,0,0,0-12.75,15.5,29.27,29.27,0,0,0-23.38,3.14,29.29,29.29,0,0,0-39.5-20.34A12.47,12.47,0,0,0,433,170.53c0,.15,0,.3,0,.45a46,46,0,0,0-19.75-5.18,11.22,11.22,0,0,0,.13-1.64,12.49,12.49,0,0,0-25,0,12.34,12.34,0,0,0,2,6.76,46.28,46.28,0,1,0,67.18,46.64,29.28,29.28,0,0,0,23.52-3.1A29.28,29.28,0,0,0,530,228.74a40.36,40.36,0,1,0,28-72.35Z" />
                <rect class="cls-3" x="532.08" y="331.55" width="26.11" height="69.06" rx="12"
                    transform="translate(-99.19 492.69) rotate(-45)" />
                <rect class="cls-3" x="380.84" y="353.03" width="69.06" height="26.11" rx="12"
                    transform="translate(-137.2 400.94) rotate(-45)" />
                <path class="cls-4"
                    d="M605.68,252.34a127.18,127.18,0,1,1-254.36,0c0-70.24,56.94-58.35,127.18-58.35S605.68,182.1,605.68,252.34Z" />
                <rect class="cls-3" x="343.37" y="193.23" width="273.76" height="25.35" rx="12" />
            </g>
            <path class="cls-5"
                d="M551.3,331.73h47.88a0,0,0,0,1,0,0v91.95a.77.77,0,0,1-.77.77H552.07a.77.77,0,0,1-.77-.77V331.73A0,0,0,0,1,551.3,331.73Z" />
            <path class="cls-6"
                d="M594.36,323.29H556.12a10,10,0,0,0-8,4l-.06.08c-.1.14-.21.29-.3.43s-.2.31-.29.47l-.25.47-.06.12a9.92,9.92,0,0,0-1,4.34h0c0,.16,0,.31,0,.46s0,.46,0,.71c0,7.4,3.83,13.41,8.57,13.41a5.9,5.9,0,0,0,2.77-.73v1.32h0c.06,4.33,2.21,7.81,4.86,7.81,1.71,0,3.22-1.45,4.08-3.64,1,4.34,4,7.49,7.59,7.49,4.41,0,8-4.89,8-10.91q0-.37,0-.75h0v-2.13a4.47,4.47,0,0,0,3.47,1.73,4.62,4.62,0,0,0,4.11-2.77v3.17c0,2.86,1.72,5.18,3.84,5.18s3.84-2.32,3.84-5.18v-5.66a10,10,0,0,0,7-9.51h0A10,10,0,0,0,594.36,323.29Zm-27.12,19.9h.12l-.12.26Z" />
            <path class="cls-7 candleFire1"
                d="M590.53,303.64c0,10.42-6.85,16.32-15.29,16.32S560,314.06,560,303.64s15.29-28.35,15.29-28.35S590.53,293.23,590.53,303.64Z" />
            <path class="cls-8 candleFire2"
                d="M584,309.63c0,6-3.94,9.38-8.79,9.38s-8.79-3.4-8.79-9.38,8.79-16.31,8.79-16.31S584,303.64,584,309.63Z" />
            <path class="cls-5"
                d="M593.84,372.78h46.35a.77.77,0,0,1,.77.77v51a0,0,0,0,1,0,0H593.08a0,0,0,0,1,0,0v-51A.77.77,0,0,1,593.84,372.78Z"
                transform="translate(1234.03 797.33) rotate(-180)" />
            <path class="cls-6"
                d="M588,374.3h0a10,10,0,0,0,7,9.51v5.66c0,2.86,1.72,5.18,3.84,5.18s3.83-2.32,3.83-5.18V386.3a4.64,4.64,0,0,0,4.12,2.77,4.46,4.46,0,0,0,3.46-1.73v2.13h0c0,.25,0,.49,0,.75,0,6,3.58,10.9,8,10.9,3.54,0,6.53-3.14,7.58-7.49.87,2.19,2.37,3.64,4.08,3.64,2.65,0,4.8-3.48,4.86-7.8h0v-1.33a5.79,5.79,0,0,0,2.77.73c4.73,0,8.57-6,8.57-13.41,0-.24,0-.47,0-.7s0-.31,0-.46h0a9.73,9.73,0,0,0-1-4.34l-.06-.13c-.08-.15-.16-.31-.25-.46s-.18-.32-.28-.47l-.31-.44-.06-.08a9.93,9.93,0,0,0-8-4H597.89A10,10,0,0,0,588,374.3ZM625,384.51c0-.09-.07-.18-.11-.26H625Z" />
            <path class="cls-7 candleFire3"
                d="M634.89,343.39c0,10.41-6.85,16.32-15.29,16.32s-15.29-5.91-15.29-16.32S619.6,315,619.6,315,634.89,333,634.89,343.39Z" />
            <path class="cls-8 candleFire4"
                d="M628.39,349.37c0,6-3.94,9.39-8.79,9.39s-8.8-3.4-8.8-9.39,8.8-16.31,8.8-16.31S628.39,343.39,628.39,349.37Z" />
            <polygon class="cls-9"
                points="152.65 214.84 244.35 119.6 302.66 75.78 320.31 46.95 305.53 14.47 318.45 0 334.59 31.84 335.2 54.73 312.81 86.75 282.08 110.07 237.36 151.85 193.06 198.87 144.65 247.38 118.89 277.62 103.08 263.44 152.65 214.84" />
            <path class="cls-10"
                d="M129.49,248.28a545,545,0,0,1-29.43,132.91,4,4,0,0,1-6.43,1.73q-5.09-4.34-10-8.7c-1.62-1.43,4.16-7,2.56-8.42-.56-.5-8.51,3.12-9.07,2.62-.84-.76,2.17-3.83,1.34-4.59-.63-.57-5.12,1.16-5.75.59-15-13.72-29-27.69-41.95-41.93a2.61,2.61,0,0,1-.14-3.33l11.18-14.71a.79.79,0,0,0-1.09-1.12L26.3,313.7a1.82,1.82,0,0,1-2.49-.37A102.46,102.46,0,0,0,1.66,292.69a3.88,3.88,0,0,1,.77-6.78A715.41,715.41,0,0,1,129.49,248.28Z" />
            <path class="cls-11"
                d="M133,273.91h0a9.33,9.33,0,0,1-13.17.74L108,264.07a9.38,9.38,0,0,1-.73-13.2h0a9.34,9.34,0,0,1,13.17-.73l11.79,10.57A9.39,9.39,0,0,1,133,273.91Z" />
            <path class="cls-12"
                d="M143.34,262.28h0a9.34,9.34,0,0,1-13.17.73l-11.79-10.57a9.38,9.38,0,0,1-.73-13.2h0a9.33,9.33,0,0,1,13.17-.74l11.79,10.58A9.39,9.39,0,0,1,143.34,262.28Z" />
            <path class="cls-13"
                d="M56.26,167a41.65,41.65,0,0,1-12.58,8.75,41.87,41.87,0,0,1,12.58,8.76,41.94,41.94,0,0,1,8.64,12.31,41.65,41.65,0,0,1,8.71-12.48,42.2,42.2,0,0,1,12.2-8.59A43.45,43.45,0,0,1,64.9,154.68,41.94,41.94,0,0,1,56.26,167Z" />
            <path class="cls-13"
                d="M212.92,271.25a30.06,30.06,0,0,1-9.06,6.31,31.4,31.4,0,0,1,15.28,15.16,31.29,31.29,0,0,1,15.06-15.16,31.25,31.25,0,0,1-15.06-15.17A30,30,0,0,1,212.92,271.25Z" />
            <path class="cls-13"
                d="M148.16,149.58a24.21,24.21,0,0,1-7.33,5.1,24.21,24.21,0,0,1,7.33,5.1,24.5,24.5,0,0,1,5,7.16,25.35,25.35,0,0,1,12.17-12.26,25.35,25.35,0,0,1-12.17-12.26A24.5,24.5,0,0,1,148.16,149.58Z" />
            <path class="cls-13"
                d="M42.14,406.72a24.21,24.21,0,0,1-7.33,5.1,25.24,25.24,0,0,1,12.35,12.27,25.39,25.39,0,0,1,12.18-12.27,25.43,25.43,0,0,1-12.18-12.26A24.33,24.33,0,0,1,42.14,406.72Z" />
        </g>
    </g>
</svg>