<svg xmlns="http://www.w3.org/2000/svg" viewBox="0 0 448.17 477.12"><defs><style>.cls-1{fill:#00ffce;}.cls-2{fill:#2a38b7;}.cls-3{fill:#3b45f4;}.cls-4{fill:#e8009b;}.cls-5{fill:#ff4031;}.cls-6{fill:#ff5f40;}</style></defs><g id="Layer_2" data-name="Layer 2"><g id="v2"><path class="cls-1" d="M409.72,44.76a41.87,41.87,0,0,1-12.58,8.76,43.57,43.57,0,0,1,21.22,21.06,43.56,43.56,0,0,1,20.91-21.06,43.52,43.52,0,0,1-20.91-21.07A41.94,41.94,0,0,1,409.72,44.76Z"/><path class="cls-1" d="M12.58,283.71A41.87,41.87,0,0,1,0,292.47a41.65,41.65,0,0,1,12.58,8.75,41.94,41.94,0,0,1,8.64,12.31,41.65,41.65,0,0,1,8.71-12.48,42,42,0,0,1,12.2-8.58,42.07,42.07,0,0,1-12.2-8.59,41.65,41.65,0,0,1-8.71-12.48A41.94,41.94,0,0,1,12.58,283.71Z"/><path class="cls-1" d="M427.16,120a29.8,29.8,0,0,1-9,6.23,30.93,30.93,0,0,1,15.09,15,30.93,30.93,0,0,1,14.87-15,30.93,30.93,0,0,1-14.87-15A29.9,29.9,0,0,1,427.16,120Z"/><path class="cls-1" d="M378.25,138.55a42,42,0,0,1-12.59,8.77,43.5,43.5,0,0,1,21.23,21.07,43.56,43.56,0,0,1,20.93-21.07,43.64,43.64,0,0,1-20.93-21.08A41.94,41.94,0,0,1,378.25,138.55Z"/><path class="cls-1" d="M70.2,59.7a34.21,34.21,0,0,1-10.28,7.16,35.47,35.47,0,0,1,17.33,17.2,35.54,35.54,0,0,1,17.09-17.2A35.62,35.62,0,0,1,77.25,49.65,34.23,34.23,0,0,1,70.2,59.7Z"/><rect class="cls-2" x="50.78" y="216.35" width="338.07" height="31.78" rx="15.89"/><path class="cls-2" d="M203.09,35.22,185.84,70.43l95.27,24.82,77.13,20.09a3.81,3.81,0,0,0,3.28-6.71L298.35,60l-78-60Z"/><polygon class="cls-3" points="219.81 216.35 326.73 216.35 273.27 109.08 219.81 1.81 166.36 109.08 112.9 216.35 219.81 216.35"/><polygon class="cls-4" points="154.83 132.21 284.8 132.21 301.29 165.32 138.33 165.32 154.83 132.21"/><path class="cls-5" d="M307.07,348.79c0,70.88-87.26,128.33-87.26,128.33s-87.26-57.45-87.26-128.33S219.81,288,219.81,288,307.07,277.92,307.07,348.79Z"/><path class="cls-6" d="M252.25,272.87c-21.06-6.17-35.38,8.27-37.07,21.55-1.71,13.48,10.06,25.81,28.11,31.86,58.29,19.53,103.34-13,102.27-15.85-.85-2.2-23.29,10.77-55.2-5.68C271.28,294.91,271.3,278.46,252.25,272.87Z"/><path class="cls-6" d="M187.38,272.87c21.06-6.17,35.38,8.27,37.07,21.55,1.71,13.48-10.07,25.81-28.11,31.86-58.29,19.53-103.34-13-102.27-15.85.85-2.2,23.29,10.77,55.2-5.68C168.35,294.91,168.33,278.46,187.38,272.87Z"/></g></g></svg>